<?xml version="1.0" standalone="no"?>
<svg xmlns:xlink="http://www.w3.org/1999/xlink" id="wave" style="transform:rotate(0deg); transition: 0.3s" viewBox="0 0 1440 490" version="1.1" xmlns="http://www.w3.org/2000/svg"><defs><linearGradient id="sw-gradient-0" x1="0" x2="0" y1="1" y2="0"><stop stop-color="rgba(243, 106, 62, 1)" offset="0%"/><stop stop-color="rgba(255, 179, 11, 1)" offset="100%"/></linearGradient></defs><path style="transform:translate(0, 0px); opacity:1" fill="url(#sw-gradient-0)" d="M0,294L60,245C120,196,240,98,360,65.3C480,33,600,65,720,130.7C840,196,960,294,1080,318.5C1200,343,1320,294,1440,285.8C1560,278,1680,310,1800,310.3C1920,310,2040,278,2160,253.2C2280,229,2400,212,2520,236.8C2640,261,2760,327,2880,367.5C3000,408,3120,425,3240,400.2C3360,376,3480,310,3600,236.8C3720,163,3840,82,3960,40.8C4080,0,4200,0,4320,16.3C4440,33,4560,65,4680,89.8C4800,114,4920,131,5040,155.2C5160,180,5280,212,5400,253.2C5520,294,5640,343,5760,310.3C5880,278,6000,163,6120,106.2C6240,49,6360,49,6480,106.2C6600,163,6720,278,6840,302.2C6960,327,7080,261,7200,196C7320,131,7440,65,7560,32.7C7680,0,7800,0,7920,40.8C8040,82,8160,163,8280,228.7C8400,294,8520,343,8580,367.5L8640,392L8640,490L8580,490C8520,490,8400,490,8280,490C8160,490,8040,490,7920,490C7800,490,7680,490,7560,490C7440,490,7320,490,7200,490C7080,490,6960,490,6840,490C6720,490,6600,490,6480,490C6360,490,6240,490,6120,490C6000,490,5880,490,5760,490C5640,490,5520,490,5400,490C5280,490,5160,490,5040,490C4920,490,4800,490,4680,490C4560,490,4440,490,4320,490C4200,490,4080,490,3960,490C3840,490,3720,490,3600,490C3480,490,3360,490,3240,490C3120,490,3000,490,2880,490C2760,490,2640,490,2520,490C2400,490,2280,490,2160,490C2040,490,1920,490,1800,490C1680,490,1560,490,1440,490C1320,490,1200,490,1080,490C960,490,840,490,720,490C600,490,480,490,360,490C240,490,120,490,60,490L0,490Z"/></svg>